<svg id="Layer_1" data-name="Layer 1" xmlns="http://www.w3.org/2000/svg" viewBox="0 0 2285.7 591.2"><defs><style>.cls-1,.cls-3{fill:#fff;}.cls-1,.cls-2,.cls-4,.cls-5{stroke:#15375e;stroke-linejoin:round;stroke-width:3px;}.cls-1,.cls-2,.cls-5{stroke-linecap:round;}.cls-2,.cls-4{fill:none;}.cls-5,.cls-7{fill:#15375e;}.cls-6{fill:#ffc612;}</style></defs><title>Artboard 1</title><polyline class="cls-1" points="842.69 527.94 760.07 527.94 760.07 220.04 770.67 220.04 770.67 197.95 801.38 157.95 832.09 197.95 832.09 220.04 842.69 220.04 842.69 527.94"/><line class="cls-2" x1="806.81" y1="245.47" x2="806.81" y2="451.39"/><line class="cls-2" x1="795.94" y1="245.47" x2="795.94" y2="451.39"/><line class="cls-2" x1="785.08" y1="245.47" x2="785.08" y2="451.39"/><line class="cls-2" x1="817.68" y1="245.47" x2="817.68" y2="451.39"/><line class="cls-2" x1="801.38" y1="160.95" x2="801.38" y2="134.23"/><line class="cls-2" x1="760.07" y1="244.41" x2="842.69" y2="244.41"/><rect class="cls-1" x="10.83" y="306.27" width="78" height="261.31"/><path class="cls-2" d="M512.08,339.71a20.17,20.17,0,0,1,20.18,20.18"/><path class="cls-2" d="M552.44,339.71a20.17,20.17,0,0,0-20.18,20.18"/><path class="cls-2" d="M486.47,284.18a10.09,10.09,0,0,1,10.09,10.09"/><path class="cls-2" d="M506.65,284.18a10.09,10.09,0,0,0-10.09,10.09"/><polyline class="cls-2" points="207.17 483.2 486.47 483.2 486.47 497.37 208.12 497.37"/><polyline class="cls-2" points="482.85 483.2 762.14 483.2 762.14 497.37 483.79 497.37"/><path class="cls-2" d="M282.11,483.2a83.6,83.6,0,0,0,83.6-83.61"/><path class="cls-2" d="M362.9,483.2a83.6,83.6,0,0,0,83.6-83.61"/><path class="cls-2" d="M544.5,483.2a83.6,83.6,0,0,1-83.6-83.61"/><rect class="cls-2" x="361.45" y="391.09" width="89.32" height="8.51"/><rect class="cls-2" x="450.77" y="391.09" width="9.8" height="8.51"/><line class="cls-2" x1="446.5" y1="399.59" x2="446.5" y2="483.2"/><line class="cls-2" x1="455.67" y1="399.59" x2="455.67" y2="483.2"/><line class="cls-2" x1="365.71" y1="399.59" x2="365.71" y2="482.39"/><path class="cls-2" d="M380,482.1V431.81a11.42,11.42,0,0,1,22.84,0v50.58"/><path class="cls-2" d="M413.33,482.1V431.81a11.42,11.42,0,0,1,22.84,0v50.58"/><line class="cls-2" x1="353.15" y1="483.49" x2="353.15" y2="497.37"/><line class="cls-2" x1="239" y1="483.2" x2="239" y2="497.37"/><line class="cls-2" x1="365.71" y1="498.01" x2="365.71" y2="539.96"/><line class="cls-2" x1="225.72" y1="498.01" x2="225.72" y2="539.96"/><line class="cls-2" x1="456.03" y1="499.16" x2="456.03" y2="539.96"/><line class="cls-1" x1="2026.66" y1="425.42" x2="2158.66" y2="425.42"/><rect class="cls-1" x="1777.69" y="199.15" width="63.33" height="351.49"/><polygon class="cls-1" points="1777.69 199.15 1809.36 168.46 1841.02 199.15 1777.69 199.15"/><line class="cls-2" x1="1779.11" y1="238.41" x2="1840.02" y2="238.41"/><line class="cls-2" x1="1779.11" y1="229.39" x2="1840.02" y2="229.39"/><line class="cls-2" x1="1779.11" y1="220.27" x2="1840.02" y2="220.27"/><path class="cls-2" d="M2180.27,138H2050.4a25.47,25.47,0,0,1,44.35-16.48,37.14,37.14,0,0,1,56.06-12,52,52,0,0,1,30-21.14l.89-.36a36.89,36.89,0,0,1,10.58-1.55c16.88,0,31.51,11.5,38.79,28.32,5.47-7.27,13.39-11.83,22.2-11.83,16.3,0,29.54,15.63,29.92,35.07H2181.71"/><rect class="cls-1" x="741.69" y="430.44" width="465.25" height="98.56"/><rect class="cls-1" x="931.39" y="415.58" width="321.4" height="119.72"/><rect class="cls-3" x="926.44" y="479.16" width="17.91" height="54.64"/><rect class="cls-1" x="919.63" y="475.44" width="154.08" height="7.43"/><line class="cls-2" x1="1726.86" y1="532.49" x2="1697.72" y2="460.25"/><line class="cls-2" x1="1608.55" y1="460.25" x2="1579.6" y2="531.21"/><line class="cls-2" x1="1619.39" y1="415.58" x2="1608.55" y2="460.25"/><polyline class="cls-4" points="1686.67 415.58 1670.09 244.41 1635.47 244.41 1619.39 415.58"/><line class="cls-2" x1="1697.72" y1="460.25" x2="1686.67" y2="415.58"/><line class="cls-2" x1="1623.83" y1="244.41" x2="1684.29" y2="244.41"/><line class="cls-2" x1="1581.34" y1="459.71" x2="1724.06" y2="459.71"/><line class="cls-2" x1="1599.31" y1="417.22" x2="1704.45" y2="417.22"/><path class="cls-4" d="M1635.16,232a17.62,17.62,0,0,1,35.24,0v12.43h-34.93Z"/><line class="cls-2" x1="1652.78" y1="214.36" x2="1652.78" y2="183.94"/><line class="cls-2" x1="1652.78" y1="415.58" x2="1652.78" y2="244.41"/><line class="cls-2" x1="1635.47" y1="244.41" x2="1672.06" y2="269.78"/><line class="cls-2" x1="1670.09" y1="244.41" x2="1633.5" y2="269.78"/><line class="cls-2" x1="1633.93" y1="269.78" x2="1673.78" y2="295.15"/><line class="cls-2" x1="1671.63" y1="269.78" x2="1631.78" y2="295.15"/><line class="cls-2" x1="1631.7" y1="295.15" x2="1676.26" y2="323.51"/><line class="cls-2" x1="1673.86" y1="295.15" x2="1629.3" y2="323.51"/><line class="cls-2" x1="1628.69" y1="325.62" x2="1679.62" y2="358.05"/><line class="cls-2" x1="1676.87" y1="325.62" x2="1625.94" y2="358.05"/><line class="cls-2" x1="1625.13" y1="360.43" x2="1683.57" y2="397.63"/><line class="cls-2" x1="1680.43" y1="360.43" x2="1621.99" y2="397.63"/><line class="cls-2" x1="1622.36" y1="396.98" x2="1652.78" y2="415.58"/><line class="cls-2" x1="1683.2" y1="396.98" x2="1652.78" y2="415.58"/><line class="cls-2" x1="1618.99" y1="417.22" x2="1697.72" y2="460.25"/><line class="cls-2" x1="1687.07" y1="417.22" x2="1608.55" y2="460.25"/><line class="cls-2" x1="1608.55" y1="460.25" x2="1726.86" y2="532.49"/><line class="cls-2" x1="1697.72" y1="460.25" x2="1579.6" y2="531.21"/><path class="cls-2" d="M756.91,240.15a52,52,0,0,0-30,21.14,37.14,37.14,0,0,0-56.06,12A25.46,25.46,0,0,0,626.5,289.8H756.36"/><rect class="cls-1" x="1476.6" y="430.44" width="465.25" height="104.86"/><rect class="cls-1" x="1721.69" y="364.65" width="152" height="187.83"/><polyline class="cls-1" points="1281.71 550.94 1223.8 550.94 1223.8 335.13 1231.22 335.13 1231.22 275.48 1252.75 275.48 1274.28 275.48 1274.28 335.13 1281.71 335.13 1281.71 550.94"/><line class="cls-2" x1="1223.8" y1="364.65" x2="1279.25" y2="364.65"/><polygon class="cls-1" points="1504.82 550.94 1504.82 418.27 1504.82 381.61 1290.49 381.61 1275.15 418.27 1265.15 418.27 1265.15 550.94 1504.82 550.94"/><line class="cls-2" x1="1265.15" y1="428.27" x2="1504.82" y2="428.27"/><line class="cls-2" x1="1265.15" y1="418.42" x2="1504.82" y2="418.42"/><rect class="cls-1" x="1365.82" y="241.12" width="99.01" height="309.52"/><rect class="cls-5" x="1381.02" y="261.94" width="3.92" height="9.46"/><rect class="cls-5" x="1402.95" y="261.94" width="3.92" height="9.46"/><rect class="cls-5" x="1426.46" y="261.94" width="3.92" height="9.46"/><rect class="cls-5" x="1448.39" y="261.94" width="3.92" height="9.46"/><rect class="cls-5" x="1381.02" y="286.08" width="3.92" height="9.46"/><rect class="cls-5" x="1402.95" y="286.08" width="3.92" height="9.46"/><rect class="cls-5" x="1426.46" y="286.08" width="3.92" height="9.46"/><rect class="cls-5" x="1448.39" y="286.08" width="3.92" height="9.46"/><rect class="cls-5" x="1381.02" y="310.22" width="3.92" height="9.46"/><rect class="cls-5" x="1402.95" y="310.22" width="3.92" height="9.46"/><rect class="cls-5" x="1426.46" y="310.22" width="3.92" height="9.46"/><rect class="cls-5" x="1448.39" y="310.22" width="3.92" height="9.46"/><rect class="cls-5" x="1381.02" y="370.74" width="3.92" height="9.46"/><rect class="cls-5" x="1402.95" y="370.74" width="3.92" height="9.46"/><rect class="cls-5" x="1426.46" y="370.74" width="3.92" height="9.46"/><rect class="cls-5" x="1448.39" y="370.74" width="3.92" height="9.46"/><rect class="cls-5" x="1381.02" y="394.88" width="3.92" height="9.46"/><rect class="cls-5" x="1402.95" y="394.88" width="3.92" height="9.46"/><rect class="cls-5" x="1426.46" y="394.88" width="3.92" height="9.46"/><rect class="cls-5" x="1448.39" y="394.88" width="3.92" height="9.46"/><rect class="cls-5" x="1381.02" y="419.02" width="3.92" height="9.46"/><rect class="cls-5" x="1402.95" y="419.02" width="3.92" height="9.46"/><rect class="cls-5" x="1426.46" y="419.02" width="3.92" height="9.46"/><rect class="cls-5" x="1448.39" y="419.02" width="3.92" height="9.46"/><rect class="cls-5" x="1381.02" y="474.61" width="3.92" height="9.46"/><rect class="cls-5" x="1402.95" y="474.61" width="3.92" height="9.46"/><rect class="cls-5" x="1426.46" y="474.61" width="3.92" height="9.46"/><rect class="cls-5" x="1448.39" y="474.61" width="3.92" height="9.46"/><rect class="cls-5" x="1381.02" y="498.75" width="3.92" height="9.46"/><rect class="cls-5" x="1402.95" y="498.75" width="3.92" height="9.46"/><rect class="cls-5" x="1426.46" y="498.75" width="3.92" height="9.46"/><rect class="cls-5" x="1448.39" y="498.75" width="3.92" height="9.46"/><rect class="cls-5" x="1381.02" y="522.88" width="3.92" height="9.46"/><rect class="cls-5" x="1402.95" y="522.88" width="3.92" height="9.46"/><rect class="cls-5" x="1426.46" y="522.88" width="3.92" height="9.46"/><rect class="cls-5" x="1448.39" y="522.88" width="3.92" height="9.46"/><line class="cls-2" x1="1365.82" y1="346.27" x2="1464.83" y2="346.27"/><line class="cls-2" x1="1365.82" y1="453.94" x2="1464.83" y2="453.94"/><polygon class="cls-1" points="1944.85 206.34 1944.85 149.41 1854.31 149.41 1854.31 206.34 1854.31 239.94 1854.31 554.45 1976.31 554.45 1976.31 206.34 1944.85 206.34"/><line class="cls-2" x1="1967.69" y1="207.27" x2="1967.69" y2="542.68"/><line class="cls-2" x1="1504.82" y1="480.27" x2="1721.69" y2="480.27"/><line class="cls-2" x1="1504.82" y1="439.25" x2="1721.69" y2="439.25"/><line class="cls-2" x1="1519.35" y1="439.25" x2="1519.35" y2="480.27"/><line class="cls-2" x1="1546.35" y1="439.25" x2="1546.35" y2="480.27"/><line class="cls-2" x1="1573.84" y1="439.25" x2="1573.84" y2="480.27"/><line class="cls-2" x1="1600.75" y1="439.25" x2="1600.75" y2="480.27"/><line class="cls-2" x1="1628.01" y1="439.25" x2="1628.01" y2="480.27"/><line class="cls-2" x1="1655.01" y1="439.25" x2="1655.01" y2="480.27"/><line class="cls-2" x1="1682.49" y1="439.25" x2="1682.49" y2="480.27"/><line class="cls-2" x1="1709.4" y1="439.25" x2="1709.4" y2="480.27"/><polygon class="cls-1" points="2166.8 555.72 1939.55 555.72 1939.55 275.48 2121.05 315.48 2121.05 370 2166.8 370 2166.8 555.72"/><rect class="cls-1" x="2026.66" y="402.61" width="132" height="153.67"/><line class="cls-2" x1="2026.66" y1="456.75" x2="2158.66" y2="456.75"/><line class="cls-2" x1="2026.66" y1="442.44" x2="2158.66" y2="442.44"/><path class="cls-2" d="M1019.4,535V509.72a11.42,11.42,0,0,1,22.84,0V535.3"/><path class="cls-2" d="M983.2,535V509.72a11.42,11.42,0,1,1,22.84,0V535.3"/><path class="cls-2" d="M948,535V509.72a11.42,11.42,0,0,1,22.84,0V535.3"/><line class="cls-2" x1="1067.42" y1="482.87" x2="1067.42" y2="535.3"/><line class="cls-2" x1="926.44" y1="482.87" x2="926.44" y2="535.3"/><circle class="cls-2" cx="1252.75" cy="303.98" r="11.33"/><line class="cls-2" x1="1231.23" y1="283.57" x2="1274.28" y2="283.57"/><rect class="cls-2" x="1872.21" y="232.38" width="2.96" height="9.41" transform="translate(1636.6 2110.78) rotate(-90)"/><rect class="cls-2" x="1872.21" y="215.82" width="2.96" height="9.41" transform="translate(1653.16 2094.22) rotate(-90)"/><rect class="cls-2" x="1872.21" y="198.08" width="2.96" height="9.41" transform="translate(1670.91 2076.47) rotate(-90)"/><rect class="cls-2" x="1872.21" y="181.52" width="2.96" height="9.41" transform="translate(1687.46 2059.91) rotate(-90)"/><rect class="cls-2" x="1872.21" y="165.23" width="2.96" height="9.41" transform="translate(1703.75 2043.62) rotate(-90)"/><rect class="cls-2" x="1897.19" y="232.38" width="2.96" height="9.41" transform="translate(1661.59 2135.76) rotate(-90)"/><rect class="cls-2" x="1897.19" y="215.82" width="2.96" height="9.41" transform="translate(1678.14 2119.2) rotate(-90)"/><rect class="cls-2" x="1897.19" y="198.08" width="2.96" height="9.41" transform="translate(1695.89 2101.45) rotate(-90)"/><rect class="cls-2" x="1897.19" y="181.52" width="2.96" height="9.41" transform="translate(1712.45 2084.9) rotate(-90)"/><rect class="cls-2" x="1897.19" y="165.23" width="2.96" height="9.41" transform="translate(1728.74 2068.61) rotate(-90)"/><rect class="cls-2" x="1872.21" y="317.33" width="2.96" height="9.41" transform="translate(1551.66 2195.72) rotate(-90)"/><rect class="cls-2" x="1872.21" y="300.77" width="2.96" height="9.41" transform="translate(1568.21 2179.16) rotate(-90)"/><rect class="cls-2" x="1872.21" y="283.02" width="2.96" height="9.41" transform="translate(1585.96 2161.42) rotate(-90)"/><rect class="cls-2" x="1872.21" y="266.47" width="2.96" height="9.41" transform="translate(1602.52 2144.86) rotate(-90)"/><rect class="cls-2" x="1872.21" y="250.18" width="2.96" height="9.41" transform="translate(1618.81 2128.57) rotate(-90)"/><rect class="cls-2" x="1897.19" y="317.33" width="2.96" height="9.41" transform="translate(1576.64 2220.71) rotate(-90)"/><rect class="cls-2" x="1897.19" y="300.77" width="2.96" height="9.41" transform="translate(1593.2 2204.15) rotate(-90)"/><rect class="cls-2" x="1897.19" y="283.02" width="2.96" height="9.41" transform="translate(1610.95 2186.4) rotate(-90)"/><rect class="cls-2" x="1897.19" y="266.47" width="2.96" height="9.41" transform="translate(1627.5 2169.84) rotate(-90)"/><rect class="cls-2" x="1897.19" y="250.18" width="2.96" height="9.41" transform="translate(1643.79 2153.55) rotate(-90)"/><rect class="cls-2" x="1872.21" y="401.1" width="2.96" height="9.41" transform="translate(1467.88 2279.49) rotate(-90)"/><rect class="cls-2" x="1872.21" y="384.54" width="2.96" height="9.41" transform="translate(1484.44 2262.93) rotate(-90)"/><rect class="cls-2" x="1872.21" y="366.8" width="2.96" height="9.41" transform="translate(1502.19 2245.19) rotate(-90)"/><rect class="cls-2" x="1872.21" y="350.24" width="2.96" height="9.41" transform="translate(1518.75 2228.63) rotate(-90)"/><rect class="cls-2" x="1872.21" y="333.95" width="2.96" height="9.41" transform="translate(1535.04 2212.34) rotate(-90)"/><rect class="cls-2" x="1897.19" y="401.1" width="2.96" height="9.41" transform="translate(1492.87 2304.48) rotate(-90)"/><rect class="cls-2" x="1897.19" y="384.54" width="2.96" height="9.41" transform="translate(1509.43 2287.92) rotate(-90)"/><rect class="cls-2" x="1897.19" y="366.8" width="2.96" height="9.41" transform="translate(1527.17 2270.17) rotate(-90)"/><rect class="cls-2" x="1897.19" y="350.24" width="2.96" height="9.41" transform="translate(1543.73 2253.61) rotate(-90)"/><rect class="cls-2" x="1897.19" y="333.95" width="2.96" height="9.41" transform="translate(1560.02 2237.33) rotate(-90)"/><rect class="cls-2" x="1872.21" y="484.87" width="2.96" height="9.41" transform="translate(1384.11 2363.26) rotate(-90)"/><rect class="cls-2" x="1872.21" y="468.31" width="2.96" height="9.41" transform="translate(1400.67 2346.71) rotate(-90)"/><rect class="cls-2" x="1872.21" y="450.57" width="2.96" height="9.41" transform="translate(1418.42 2328.96) rotate(-90)"/><rect class="cls-2" x="1872.21" y="434.01" width="2.96" height="9.41" transform="translate(1434.98 2312.4) rotate(-90)"/><rect class="cls-2" x="1872.21" y="417.72" width="2.96" height="9.41" transform="translate(1451.26 2296.11) rotate(-90)"/><rect class="cls-2" x="1897.19" y="484.87" width="2.96" height="9.41" transform="translate(1409.1 2388.25) rotate(-90)"/><rect class="cls-2" x="1897.19" y="468.31" width="2.96" height="9.41" transform="translate(1425.66 2371.69) rotate(-90)"/><rect class="cls-2" x="1897.19" y="450.57" width="2.96" height="9.41" transform="translate(1443.4 2353.94) rotate(-90)"/><rect class="cls-2" x="1897.19" y="434.01" width="2.96" height="9.41" transform="translate(1459.96 2337.39) rotate(-90)"/><rect class="cls-2" x="1897.19" y="417.72" width="2.96" height="9.41" transform="translate(1476.25 2321.1) rotate(-90)"/><rect class="cls-2" x="1872.21" y="500.74" width="2.96" height="9.41" transform="translate(1368.25 2379.13) rotate(-90)"/><rect class="cls-2" x="1897.19" y="500.74" width="2.96" height="9.41" transform="translate(1393.23 2404.11) rotate(-90)"/><line class="cls-2" x1="926.44" y1="535.3" x2="955.21" y2="535.3"/><rect class="cls-5" x="757.49" y="451.39" width="3.9" height="12.4"/><rect class="cls-5" x="779.61" y="451.39" width="3.9" height="12.4"/><rect class="cls-5" x="801.73" y="451.39" width="3.9" height="12.4"/><rect class="cls-5" x="823.85" y="451.39" width="3.9" height="12.4"/><rect class="cls-5" x="845.98" y="451.39" width="3.9" height="12.4"/><rect class="cls-5" x="868.1" y="451.39" width="3.9" height="12.4"/><rect class="cls-5" x="890.22" y="451.39" width="3.9" height="12.4"/><rect class="cls-5" x="912.35" y="451.39" width="3.9" height="12.4"/><circle class="cls-1" cx="2207.17" cy="492.27" r="25.7"/><line class="cls-2" x1="2207.17" y1="489.97" x2="2207.17" y2="560.27"/><line class="cls-2" x1="2207.17" y1="508.55" x2="2198.79" y2="500.17"/><line class="cls-2" x1="2207.17" y1="508.55" x2="2216.72" y2="499"/><circle class="cls-1" cx="2240.22" cy="528.72" r="12.85"/><line class="cls-2" x1="2240.22" y1="541.57" x2="2240.22" y2="567.32"/><circle class="cls-1" cx="1109.63" cy="506.68" r="12.85"/><line class="cls-2" x1="1109.63" y1="519.53" x2="1109.63" y2="545.28"/><circle class="cls-1" cx="1148.44" cy="506.68" r="12.85"/><line class="cls-2" x1="1148.44" y1="519.53" x2="1148.44" y2="545.28"/><circle class="cls-1" cx="1184.52" cy="506.68" r="12.85"/><line class="cls-2" x1="1184.52" y1="519.53" x2="1184.52" y2="545.28"/><rect class="cls-1" x="1743.95" y="500.27" width="91.44" height="59.7"/><rect class="cls-2" x="1777.88" y="517.6" width="22.58" height="41.86"/><polygon class="cls-1" points="1843.21 500.27 1735.95 500.27 1745.95 476.63 1834.21 476.63 1843.21 500.27"/><polygon class="cls-1" points="46.57 579.45 205.53 579.45 205.53 351.84 126.05 397.01 126.05 451.79 46.57 486.38 46.57 579.45"/><line class="cls-2" x1="205.53" y1="352.44" x2="117.07" y2="401.59"/><line class="cls-2" x1="205.05" y1="343.42" x2="116.82" y2="393.13"/><line class="cls-2" x1="205.53" y1="343.17" x2="205.53" y2="352.19"/><line class="cls-2" x1="116.82" y1="393.13" x2="116.82" y2="401.62"/><polyline class="cls-1" points="32.77 491.9 32.77 484.05 126.05 442.86 125.62 451.88 32.67 491.9"/><rect class="cls-1" x="20.84" y="320.83" width="13.14" height="21.5"/><rect class="cls-1" x="44.07" y="320.83" width="13.14" height="21.5"/><rect class="cls-1" x="67.3" y="320.83" width="13.14" height="21.5"/><line class="cls-2" x1="10.83" y1="353" x2="86.67" y2="353"/><line class="cls-2" x1="0.5" y1="306.27" x2="98.72" y2="306.27"/><polyline class="cls-2" points="83.84 547.42 84.82 572.84 84.82 588.7"/><path class="cls-2" d="M104.55,565.3c-5.37,8.17-11.06,8.87-15.58,5.9s-6.15-8.47-.78-16.65,20.22-13,20.22-13S109.92,557.12,104.55,565.3Z"/><path class="cls-2" d="M75.1,539.25c1.34,6.89,4.93,8.91,8.74,8.17s6.39-3.95,5-10.85S79,522.46,79,522.46,73.76,532.36,75.1,539.25Z"/><path class="cls-1" d="M68,564.39c4.32,6.57,8.89,7.13,12.52,4.75s4.93-6.81.62-13.37S64.9,545.36,64.9,545.36,63.68,557.83,68,564.39Z"/><polyline class="cls-2" points="135.15 551.94 136.13 574.58 136.13 588.7"/><path class="cls-2" d="M150.44,566.61c-2.79,6.48-6.75,7.69-10.33,6.15s-5.42-5.25-2.63-11.73,12.73-11.73,12.73-11.73S153.23,560.13,150.44,566.61Z"/><path class="cls-2" d="M140.1,545.62c-1,4.92-3.52,6.36-6.24,5.83s-4.56-2.82-3.6-7.74,7.06-10.07,7.06-10.07S141.05,540.7,140.1,545.62Z"/><path class="cls-1" d="M123.77,566.19c3.23,4.92,6.66,5.34,9.37,3.56s3.7-5.1.47-10-12.16-7.8-12.16-7.8S120.55,561.28,123.77,566.19Z"/><line class="cls-2" x1="1252.75" y1="297.71" x2="1252.75" y2="302.46"/><line class="cls-2" x1="1257.5" y1="302.46" x2="1252.75" y2="302.46"/><circle class="cls-6" cx="2068.72" cy="349.01" r="29.33"/><path class="cls-7" d="M2068.72,383a30.87,30.87,0,0,1-22-9.19l22,28.21,22-28.22A30.84,30.84,0,0,1,2068.72,383Z"/><path class="cls-7" d="M2073.69,342.2l-1.18-3.35-10-13.38,1.8-.44L2081.56,340l10.17-2.91a14.74,14.74,0,0,1,3.58-.36,29.32,29.32,0,0,0-55.58,16.72l24.34-8.45,9.62-2.75"/><path class="cls-7" d="M2096.38,339.31a16,16,0,0,1-3.51,1.76L2082.69,344l-6.8,21.81-1.76.57,1.44-16.66-.8-3.46-9.54,2.73L2040,354.9a29.31,29.31,0,1,0,56.38-15.59"/><circle class="cls-6" cx="1412.79" cy="187.33" r="29.33"/><path class="cls-7" d="M1412.79,221.28a30.87,30.87,0,0,1-22-9.19l22,28.21,22-28.21A30.87,30.87,0,0,1,1412.79,221.28Z"/><path class="cls-7" d="M1417.77,180.52l-1.19-3.34-10-13.39,1.8-.44,17.27,14.92,10.16-2.9a14.29,14.29,0,0,1,3.58-.37,29.31,29.31,0,0,0-55.57,16.72l24.34-8.45,9.62-2.75"/><path class="cls-7" d="M1440.45,177.64a15.65,15.65,0,0,1-3.5,1.75l-10.19,2.91L1420,204.11l-1.77.57,1.44-16.65-.8-3.47-9.54,2.73-25.23,5.94a29.31,29.31,0,1,0,56.38-15.59"/><circle class="cls-6" cx="57.21" cy="250.12" r="29.33"/><path class="cls-7" d="M57.21,284.07a30.89,30.89,0,0,1-22-9.19l22,28.21,22-28.22A30.84,30.84,0,0,1,57.21,284.07Z"/><path class="cls-7" d="M62.19,243.31,61,240,51,226.58l1.8-.44,17.27,14.92,10.16-2.91a14.79,14.79,0,0,1,3.58-.36,29.31,29.31,0,0,0-55.57,16.72l24.34-8.45,9.62-2.75"/><path class="cls-7" d="M84.87,240.42a15.24,15.24,0,0,1-3.5,1.76l-10.19,2.91L64.39,266.9l-1.76.57,1.43-16.65-.8-3.47-9.54,2.73L28.5,256a29.31,29.31,0,1,0,56.37-15.6"/><circle class="cls-6" cx="997.52" cy="418.62" r="29.33"/><path class="cls-7" d="M997.52,452.57a30.87,30.87,0,0,1-22-9.19l22,28.21,22-28.22A30.84,30.84,0,0,1,997.52,452.57Z"/><path class="cls-7" d="M1002.49,411.81l-1.18-3.34-10-13.39,1.8-.44,17.27,14.92,10.16-2.91a14.84,14.84,0,0,1,3.58-.36A29.31,29.31,0,0,0,968.53,423l24.34-8.45,9.62-2.75"/><path class="cls-7" d="M1025.18,408.92a15.53,15.53,0,0,1-3.51,1.76l-10.18,2.91-6.8,21.81-1.76.57,1.44-16.65-.81-3.47L994,418.58l-25.22,5.94a29.32,29.32,0,1,0,56.38-15.6"/></svg>