<svg id="Layer_1" data-name="Layer 1" xmlns="http://www.w3.org/2000/svg" viewBox="0 0 34.21 48"><defs><style>.cls-1{fill:#ffc717;}.cls-2{fill:#16385e;}</style></defs><title>Artboard 1</title><circle class="cls-1" cx="17.11" cy="17.11" r="17.11"/><path class="cls-2" d="M17.11,36.91A18,18,0,0,1,4.27,31.54L17.11,48,29.94,31.54A18,18,0,0,1,17.11,36.91Z"/><path class="cls-2" d="M20,13.13l-.69-2-5.84-7.8,1-.26,10.07,8.7,5.92-1.69a8.75,8.75,0,0,1,2.09-.22A17.1,17.1,0,0,0,.2,19.67l14.2-4.93L20,13.13"/><path class="cls-2" d="M33.24,11.45a9.33,9.33,0,0,1-2.05,1l-5.94,1.69-4,12.72-1,.34.84-9.72-.47-2-5.56,1.59L.36,20.54a17.1,17.1,0,1,0,32.88-9.09"/></svg>